<?xml version="1.0" standalone="no"?>
<!DOCTYPE svg PUBLIC "-//W3C//DTD SVG 1.1//EN" "http://www.w3.org/Graphics/SVG/1.1/DTD/svg11.dtd" >
<svg xmlns="http://www.w3.org/2000/svg">
<metadata>
This is a custom SVG webfont generated by Font Squirrel.
Copyright   :  2009 Copyright by Line to All rights reserved
Designer    : Laurenz Brunner
Foundry     : Andreas Eigendorf www.efont.de
Foundry URL : http://www.lineto.com
</metadata>
<defs>
<font id="AkkuratBoldItalic" horiz-adv-x="1167" >
<font-face units-per-em="2048" ascent="1604" descent="-444" />
<missing-glyph horiz-adv-x="423" />
<glyph unicode=" "  horiz-adv-x="423" />
<glyph unicode="&#x09;" horiz-adv-x="423" />
<glyph unicode="&#xa0;" horiz-adv-x="423" />
<glyph unicode="!" horiz-adv-x="694" d="M133 0l49 272h271l-50 -272h-270zM268 434l41 563l82 455h268l-81 -455l-156 -563h-154z" />
<glyph unicode="&#x22;" horiz-adv-x="1071" d="M233 803l11 350l53 299h272l-53 -299l-113 -350h-170zM698 803l11 350l53 299h272l-53 -299l-113 -350h-170z" />
<glyph unicode="#" horiz-adv-x="1544" d="M70 379l34 196h279l86 273h-250l35 199h278l121 376h209l-119 -376h287l121 376h209l-119 -376h248l-35 -199h-278l-84 -273h247l-34 -196h-279l-119 -379h-211l119 379h-287l-118 -379h-211l118 379h-247zM596 578h283l86 268h-283z" />
<glyph unicode="$" d="M-2 446q0 14 4 48h250q-2 -12 -2 -37q0 -80 47 -142q51 -66 152 -86l69 410l-96 25q-135 37 -205 114q-86 96 -86 217q0 205 172 338q152 115 359 115l34 188h150l-35 -204q170 -37 266 -154q92 -113 92 -246q0 -4 -1 -16t-1 -17h-252q0 2 1.5 10.5t1.5 12.5 q0 61 -39 119q-33 47 -107 73l-65 -374l67 -17q141 -35 227 -126t86 -226q0 -217 -167 -352q-143 -113 -361 -117l-33 -180h-151l35 192q-199 33 -318 174q-94 115 -94 258zM383 1024q0 -45 37 -84t84 -51q53 -16 55 -17l64 361q-98 -8 -160 -53q-80 -60 -80 -156zM596 219 q94 6 158 55q82 66 82 166q0 113 -142 156l-28 8z" />
<glyph unicode="%" horiz-adv-x="1845" d="M152 1016q0 76 4 100q29 154 108 242q111 121 271 121q131 0 223 -86q98 -94 98 -238q0 -76 -4 -100q-29 -154 -109 -242q-111 -121 -270 -121q-131 0 -223 86q-98 95 -98 238zM219 78l1286 1407l125 -125l-1288 -1403zM350 1012q0 -61 39 -105q35 -39 94 -39q51 0 92 37 q53 49 76 168q6 29 6 86q0 61 -39 105q-35 39 -94 39q-51 0 -92 -37q-53 -49 -76 -168q-6 -29 -6 -86zM993 299q0 76 4 100q29 154 109 242q111 121 270 121q131 0 223 -86q98 -94 99 -238q0 -76 -4 -100q-29 -154 -109 -242q-111 -121 -270 -121q-131 0 -223 86 q-99 95 -99 238zM1192 295q0 -61 39 -105q35 -39 94 -38q51 0 92 36q53 49 76 168q6 29 6 86q0 61 -39 105q-35 39 -94 39q-49 0 -92 -39q-55 -49 -76 -166q-6 -29 -6 -86z" />
<glyph unicode="&#x26;" horiz-adv-x="1515" d="M72 379q0 23 8 80q41 242 323 377q-104 154 -104 262q0 33 6 65q27 156 142.5 244t269.5 88q31 0 45 -2q147 -12 243.5 -100t96.5 -226q0 -33 -6 -65q-23 -131 -109 -215t-231 -150l202 -295q39 51 78 213q8 29 13.5 58.5t9.5 59.5l6 44h377l-35 -203h-168 q-57 -244 -154 -358l179 -256h-291l-62 94q-174 -119 -374 -119q-23 0 -60 5q-176 16 -290.5 124.5t-114.5 274.5zM309 406q0 -88 62.5 -142.5t158.5 -62.5q14 -2 45 -2q133 0 213 69l-264 396q-49 -23 -75.5 -38.5t-59.5 -41t-50 -58t-26 -77.5q-4 -29 -4 -43zM537 1116 q0 -16 3 -32.5t10 -34t11 -28.5t17.5 -29.5t17.5 -26t20.5 -29t18.5 -25.5q53 23 75.5 34t61.5 36t57.5 56.5t26.5 74.5q4 25 4 35q0 59 -37 96t-98 41h-18q-61 0 -108.5 -36t-59.5 -101q-2 -11 -2 -31z" />
<glyph unicode="'" horiz-adv-x="563" d="M211 803l8 350l53 301h275l-53 -301l-113 -350h-170z" />
<glyph unicode="(" horiz-adv-x="667" d="M125 453q0 737 565 1194l123 -131q-244 -229 -362.5 -498.5t-118.5 -603.5q0 -293 174 -641l-162 -82q-219 365 -219 762z" />
<glyph unicode=")" horiz-adv-x="667" d="M-158 -178q244 229 363 498.5t119 603.5q0 293 -174 641l161 82q219 -365 219 -762q0 -737 -565 -1194z" />
<glyph unicode="*" horiz-adv-x="1071" d="M133 1047l98 206l273 -123l31 328h229l-80 -330l313 123l39 -219l-323 -78l159 -256l-192 -133l-127 285l-225 -285l-156 133l252 263z" />
<glyph unicode="+" horiz-adv-x="1386" d="M86 522v219h467v480h231v-480h467v-219h-467v-512h-231v512h-467z" />
<glyph unicode="," horiz-adv-x="593" d="M8 -229q92 39 128 89t52 140h-155l57 319h313l-51 -294q-25 -141 -89 -230.5t-204 -142.5z" />
<glyph unicode="-" horiz-adv-x="944" d="M84 516l41 229h702l-41 -229h-702z" />
<glyph unicode="." horiz-adv-x="595" d="M20 0l58 319h313l-57 -319h-314z" />
<glyph unicode="/" horiz-adv-x="792" d="M-135 -27l895 1506h188l-895 -1506h-188z" />
<glyph unicode="0" d="M53 471v15q0 107 27 270q37 205 99.5 354.5t178.5 237.5q135 102 297 102q242 0 365 -174q92 -131 92 -322q0 -100 -31 -284q-37 -205 -99 -354.5t-179 -237.5q-137 -104 -297 -105q-238 0 -363 177q-86 122 -90 321zM301 457q0 -80 31 -142q25 -47 74 -75.5t106 -28.5 q102 0 176 84q72 82 103 229q70 319 69 445q0 80 -31 141q-25 47 -73.5 75.5t-106.5 28.5q-102 0 -176 -84q-72 -82 -102 -229q-70 -319 -70 -444z" />
<glyph unicode="1" d="M250 879l51 292l395 252h222l-252 -1423h-258l196 1106z" />
<glyph unicode="2" d="M-10 0l41 231l678 625q109 98 108 215q0 74 -48 115t-124 41q-82 0 -138 -52.5t-67 -136.5l-2 -16h-262l6 39q29 176 154 282.5t313 106.5q178 0 302 -94t124 -266q0 -211 -219 -412l-485 -447h577l-41 -231h-917z" />
<glyph unicode="3" d="M27 379q0 16 4 53h250q0 -4 -1 -11t-1 -11q0 -86 47 -140q61 -72 163 -71q106 0 173 59q74 68 73 174q0 86 -70.5 140.5t-164.5 54.5h-86l39 223h106q109 0 182.5 53t73.5 152q0 70 -45 114q-57 57 -133 58q-100 0 -164 -56q-59 -53 -76 -129h-258q29 164 146 273 q145 135 381 135q176 0 294.5 -104.5t118.5 -262.5q0 -168 -110 -278q-61 -61 -156 -84q86 -33 134 -113t48 -178q0 -164 -121 -297q-70 -76 -179 -118t-230 -42q-190 0 -322 127q-116 113 -116 279z" />
<glyph unicode="4" d="M-20 287l43 241l684 895h299l-691 -905h347l57 334h258l-59 -334h174l-41 -231h-174l-50 -287h-258l52 287h-641z" />
<glyph unicode="5" d="M55 395v21h256v-15q0 -82 54 -139q59 -63 161 -63q139 0 217 125q53 88 54 204q0 98 -56.5 152.5t-156.5 54.5q-123 0 -203 -96l-248 55l170 729h848l-41 -229h-631l-76 -322q96 84 246 84q195 0 303.5 -115.5t108.5 -308.5q0 -195 -105 -344q-154 -217 -428 -217 q-217 0 -346 121q-127 117 -127 303z" />
<glyph unicode="6" d="M82 465q0 141 22 266q35 203 94.5 356.5t174.5 247.5q135 115 319 115q233 0 348 -145q78 -96 78 -228v-4h-258q0 51 -31 92q-47 68 -151 68q-96 0 -168 -78q-70 -76 -107 -209q-16 -55 -22 -88q94 94 252 94q213 0 325 -135q100 -121 101 -282q0 -236 -142.5 -399 t-377.5 -163q-211 0 -334 138q-123 135 -123 354zM338 424q0 -96 53 -156q59 -66 154 -65q86 0 155 69q98 96 99 252q0 96 -54 156q-59 66 -153 65q-86 0 -156 -69q-98 -94 -98 -252z" />
<glyph unicode="7" d="M76 0l760 1194h-680l41 229h981l-35 -204l-770 -1219h-297z" />
<glyph unicode="8" d="M35 379q0 154 102 266q78 84 178 121q-61 43 -99 117.5t-38 152.5q0 182 139.5 298t335.5 116q213 0 332 -111q119 -113 119 -258q0 -158 -103 -266q-59 -61 -137 -92q74 -45 115 -125t41 -170q0 -205 -150.5 -330t-361.5 -125q-217 0 -352 125q-121 115 -121 281z M295 397q0 -84 59 -139q63 -57 166 -57q106 0 175 65.5t69 167.5q0 84 -59 139q-63 57 -166 58q-106 0 -175 -66t-69 -168zM434 1024q0 -76 60 -127q51 -45 139 -45q92 0 151.5 56.5t59.5 148.5q0 74 -60 125q-53 47 -139 47q-92 0 -151.5 -56.5t-59.5 -148.5z" />
<glyph unicode="9" d="M55 342q0 4 1 13.5t1 13.5h254q-2 -8 -2 -25q0 -61 49 -111q41 -41 134 -40q74 0 133 45q45 35 75 88q61 100 86 243q-80 -96 -256 -96q-197 0 -309 115q-115 119 -115 305q0 236 142.5 396.5t378.5 160.5q219 0 338 -133q117 -131 116 -349q0 -149 -22 -274 q-82 -453 -264 -604q-135 -115 -318 -115q-231 0 -348 152q-74 96 -74 215zM365 899q0 -100 56 -159.5t154 -59.5q117 0 184.5 99.5t67.5 221.5q0 102 -53 162t-153 60q-121 0 -188.5 -98.5t-67.5 -225.5z" />
<glyph unicode=":" horiz-adv-x="653" d="M53 0l56 309h309l-56 -309h-309zM188 756l54 309h309l-53 -309h-310z" />
<glyph unicode=";" horiz-adv-x="653" d="M23 -227q90 39 127.5 90t52.5 137h-156l55 309h312l-49 -284q-25 -143 -88.5 -230.5t-202.5 -140.5zM180 756l56 309h311l-55 -309h-312z" />
<glyph unicode="&#x3c;" horiz-adv-x="950" d="M25 662l657 659l143 -143l-520 -519l520 -520l-141 -139z" />
<glyph unicode="=" horiz-adv-x="1409" d="M154 264v203h1044v-203h-1044zM154 672v200h1044v-200h-1044z" />
<glyph unicode="&#x3e;" horiz-adv-x="950" d="M125 139l520 520l-520 519l143 143l658 -659l-660 -662z" />
<glyph unicode="?" horiz-adv-x="1064" d="M102 1049q31 195 136 297q139 137 370 137q186 0 317.5 -99.5t131.5 -269.5q0 -37 -6 -74q-29 -172 -224 -303q-8 -6 -34.5 -22.5t-33.5 -22.5t-28.5 -20.5t-30.5 -21.5l-24 -22q-16 -15 -24 -26l-18 -28q-11 -17 -17.5 -32.5t-13.5 -36t-11 -42.5l-10 -49h-254 q29 168 47 211q25 61 64.5 110t70.5 72.5t89 60.5l83 54q90 61 104 141q2 12 2 31q0 74 -57 115.5t-139 41.5q-96 0 -160 -59q-59 -59 -63 -143h-267zM246 0l51 287h287l-52 -287h-286z" />
<glyph unicode="@" horiz-adv-x="1884" d="M137 561q0 391 256 653.5t637 262.5q311 0 521 -178.5t210 -475.5q0 -152 -51 -283.5t-162.5 -222t-261.5 -90.5q-74 0 -122 41t-56 88q-35 -59 -102.5 -93t-141.5 -34q-143 0 -231 109q-70 84 -70 217q0 188 90 326q113 168 295 168q70 0 131.5 -34t83.5 -89l49 94h172 l-124 -508q-4 -19 -5 -35q0 -21 8 -38q13 -30 58 -29q98 0 170 137q59 117 59 291q0 207 -150.5 324.5t-377.5 117.5q-297 0 -481.5 -210t-184.5 -497q0 -233 140 -378q96 -100 214.5 -138.5t293.5 -38.5q84 0 201.5 31t201.5 72l-33 -195q-80 -47 -200.5 -75.5 t-215.5 -28.5q-395 0 -626 237q-195 201 -195 502zM784 571q0 -156 129 -155q98 0 144.5 93t46.5 206q0 59 -31 103t-98 44q-90 0 -140.5 -91t-50.5 -200z" />
<glyph unicode="A" horiz-adv-x="1294" d="M-143 0l766 1452h303l254 -1452h-277l-45 279h-577l-144 -279h-280zM401 516h418l-100 612z" />
<glyph unicode="B" horiz-adv-x="1359" d="M41 0l256 1452h559q209 0 326 -86q57 -43 93 -114.5t36 -147.5q0 -117 -61.5 -215t-172.5 -146q74 -37 116 -113.5t42 -162.5q0 -113 -54.5 -212t-146.5 -163q-86 -57 -182 -74.5t-227 -17.5h-584zM346 238h318q131 0 216 54t85 175q0 84 -59.5 129t-155.5 45h-332z M457 860h323q254 0 254 207q0 68 -52 113t-151 45h-311z" />
<glyph unicode="C" horiz-adv-x="1286" d="M72 549q0 201 66.5 413t189.5 336q180 180 428 181q227 0 372.5 -139.5t145.5 -364.5h-270q0 117 -72 190q-66 72 -182 72q-127 0 -226 -98q-88 -86 -137 -264.5t-49 -329.5q0 -166 84 -252q78 -80 201 -80q125 0 208 78q66 61 95 151h270q-35 -172 -176 -309 q-166 -160 -405.5 -160t-389.5 152q-153 154 -153 424z" />
<glyph unicode="D" horiz-adv-x="1392" d="M41 0l256 1452h487q131 0 247 -49t188 -146q102 -139 102 -333q0 -215 -71.5 -446.5t-223.5 -352.5q-162 -125 -420 -125h-565zM348 238h287q158 0 248 94q80 84 129 261t49 312q0 123 -53 199q-78 111 -258 110h-230z" />
<glyph unicode="E" horiz-adv-x="1286" d="M41 0l258 1452h1024l-43 -240h-758l-61 -338h669l-43 -237h-669l-70 -397h770l-43 -240h-1034z" />
<glyph unicode="F" horiz-adv-x="1200" d="M41 0l258 1452h993l-43 -240h-727l-69 -389h653l-41 -239h-655l-103 -584h-266z" />
<glyph unicode="G" horiz-adv-x="1374" d="M72 549q0 201 66.5 413t189.5 336q180 180 432 181q248 0 389 -146q135 -139 135 -334h-270q0 90 -62 162q-66 76 -198.5 76t-231.5 -98q-88 -86 -137 -264.5t-49 -329.5q0 -166 84 -252q76 -80 201 -80q143 0 235 94q84 88 107 209q6 37 10 59h-346l39 220h598 l-142 -795h-174v121q-47 -63 -139 -104.5t-205 -41.5q-233 0 -379 148q-153 154 -153 426z" />
<glyph unicode="H" horiz-adv-x="1462" d="M41 0l256 1452h266l-100 -567h592l100 567h266l-256 -1452h-266l111 633h-592l-111 -633h-266z" />
<glyph unicode="I" horiz-adv-x="608" d="M41 0l256 1452h270l-256 -1452h-270z" />
<glyph unicode="J" horiz-adv-x="1024" d="M-53 369q0 41 6 86h256q-6 -37 -6 -72q0 -80 43 -125t123 -45q74 0 123 50t63 128l186 1061h267l-189 -1063q-33 -195 -156.5 -305.5t-304.5 -110.5q-227 0 -340 152q-71 99 -71 244z" />
<glyph unicode="K" horiz-adv-x="1374" d="M41 0l256 1452h266l-117 -653l678 653h340l-583 -563l379 -889h-297l-281 694l-307 -297l-70 -397h-264z" />
<glyph unicode="L" horiz-adv-x="1126" d="M41 0l258 1452h264l-213 -1202h674l-45 -250h-938z" />
<glyph unicode="M" horiz-adv-x="1796" d="M41 0l256 1452h332l205 -1049l573 1049h348l-256 -1452h-258l195 1055l-566 -1035h-194l-203 1029l-174 -1049h-258z" />
<glyph unicode="N" horiz-adv-x="1501" d="M41 0l256 1452h283l446 -1030l172 1030h260l-256 -1452h-272l-455 1042l-172 -1042h-262z" />
<glyph unicode="O" horiz-adv-x="1374" d="M72 549q0 199 66.5 410.5t189.5 336.5q180 180 428 181q242 0 391 -152q156 -156 156 -424q0 -201 -66 -411.5t-188 -335.5q-180 -180 -435 -181q-240 0 -389 152q-153 154 -153 424zM338 545q0 -166 84 -252q80 -80 196 -80q133 0 230 96q88 86 136 265.5t48 330.5 q0 166 -84 252q-80 80 -196 80q-129 0 -228 -98q-88 -86 -137 -264t-49 -330z" />
<glyph unicode="P" horiz-adv-x="1271" d="M41 0l256 1452h543q197 0 328.5 -113.5t131.5 -296.5q0 -250 -159.5 -386t-417.5 -136h-326l-92 -520h-264zM438 752h295q137 0 216 65.5t79 198.5q0 92 -59.5 148.5t-169.5 56.5h-279z" />
<glyph unicode="Q" horiz-adv-x="1374" d="M72 549q0 199 66.5 410.5t189.5 336.5q180 180 428 181q242 0 391 -152q156 -156 156 -424q0 -201 -66 -411.5t-188 -335.5l-33 -31l100 -158l-172 -108l-100 159q-106 -43 -230 -43q-240 0 -389 152q-153 154 -153 424zM338 545q0 -166 84 -252q80 -80 196 -80 q45 0 97 14l-127 205l170 105l121 -193q72 96 112.5 261t40.5 300q0 166 -84 252q-80 80 -196 80q-129 0 -228 -98q-88 -86 -137 -264t-49 -330z" />
<glyph unicode="R" horiz-adv-x="1366" d="M41 0l256 1452h573q207 0 337 -113.5t130 -287.5q0 -178 -96 -299t-252 -162l178 -590h-274l-166 557h-324l-98 -557h-264zM444 788h326q131 0 213 59.5t82 186.5q0 86 -61.5 136.5t-174.5 50.5h-309z" />
<glyph unicode="S" horiz-adv-x="1273" d="M8 449v32h273q0 -94 57 -170q82 -106 268 -106q109 0 197 54t88 157q0 61 -39 104t-100 58l-308 73q-127 31 -213 129.5t-86 231.5q0 209 172 344q160 123 383 123q256 0 402 -146q129 -129 129 -301v-14h-273q0 111 -80.5 171t-195.5 60q-96 0 -174 -51 q-90 -61 -90 -154q0 -59 35.5 -95t81.5 -48l301 -72q139 -33 232 -135t93 -252q0 -193 -137 -319q-162 -150 -430 -150q-279 0 -442 156q-144 138 -144 320z" />
<glyph unicode="T" horiz-adv-x="1146" d="M96 1206l45 246h1112l-45 -246h-424l-211 -1206h-266l213 1206h-424z" />
<glyph unicode="U" horiz-adv-x="1421" d="M100 467q0 68 13 141l147 844h268l-151 -864q-10 -57 -10 -101q0 -135 74.5 -204.5t209.5 -69.5q133 0 215 86t109 236l164 917h266l-166 -944q-45 -248 -198.5 -391.5t-395.5 -143.5q-246 0 -395.5 126t-149.5 368z" />
<glyph unicode="V" horiz-adv-x="1212" d="M104 1452h267l151 -1126l551 1126h285l-735 -1452h-295z" />
<glyph unicode="W" horiz-adv-x="1806" d="M172 1452h244l24 -1024l469 1004h219l127 -1004l377 1024h258l-540 -1452h-269l-127 1012l-475 -1012h-266z" />
<glyph unicode="X" horiz-adv-x="1228" d="M-125 0l584 739l-322 713h277l225 -512l410 512h305l-578 -715l326 -737h-279l-229 532l-416 -532h-303z" />
<glyph unicode="Y" horiz-adv-x="1208" d="M80 1452h270l242 -641l471 641h295l-668 -895l-98 -557h-266l98 557z" />
<glyph unicode="Z" horiz-adv-x="1257" d="M-63 0l47 260l938 952h-758l43 240h1102l-47 -260l-936 -952h790l-43 -240h-1136z" />
<glyph unicode="[" horiz-adv-x="739" d="M20 -303l336 1900h482l-31 -174h-287l-274 -1552h286l-30 -174h-482z" />
<glyph unicode="\" horiz-adv-x="792" d="M125 1479h174l363 -1506h-175z" />
<glyph unicode="]" horiz-adv-x="739" d="M-139 -303l30 174h287l275 1552h-287l31 174h481l-336 -1900h-481z" />
<glyph unicode="^" horiz-adv-x="1101" d="M129 827l348 652h203l346 -652h-283l-170 334l-172 -334h-272z" />
<glyph unicode="_" horiz-adv-x="1198" d="M-63 -4h1103v-180h-1103v180z" />
<glyph unicode="`" horiz-adv-x="518" d="M137 1389l115 186l377 -283l-82 -133z" />
<glyph unicode="a" horiz-adv-x="1208" d="M43 426q0 143 49 287.5t141 236.5q141 141 318 142q100 0 181 -41t114 -105l47 119h225l-188 -1065h-207v121q-49 -72 -128 -110t-159 -38q-166 0 -272 113q-121 127 -121 340zM303 428q0 -104 50 -171t151 -67q82 0 160 78q127 129 127 373q0 100 -49.5 168t-147.5 68 q-90 0 -166 -76q-59 -59 -92 -166t-33 -207z" />
<glyph unicode="b" horiz-adv-x="1216" d="M31 0l260 1477h258l-82 -478q100 92 246 93q168 0 276 -115q119 -125 119 -338q0 -180 -71.5 -346t-211.5 -254q-102 -66 -227 -66q-197 0 -295 140l-53 -113h-219zM358 432q0 -113 48 -170q53 -72 159 -72q84 0 158 74q59 59 91 162.5t32 204.5q0 104 -52.5 175 t-148.5 71q-88 0 -162 -74q-59 -61 -92 -167t-33 -204z" />
<glyph unicode="c" horiz-adv-x="1083" d="M43 453q0 141 49 275t144 224q147 139 350 140q211 0 323 -134q96 -113 97 -278q0 -2 -1 -7t-1 -7h-252v16q0 72 -31 117q-47 72 -143 71q-80 0 -145.5 -55t-99.5 -163.5t-34 -215.5q0 -102 49 -171.5t150 -69.5q74 0 132 44t72 111h252q-33 -168 -167 -272.5 t-308 -104.5q-119 0 -216 55.5t-154 151.5q-66 113 -66 273z" />
<glyph unicode="d" horiz-adv-x="1210" d="M43 426q0 180 71.5 346t211.5 254q102 66 225 66q100 0 179 -39t114 -101l94 527h254l-260 -1479h-209v121q-45 -74 -125 -111t-162 -37q-164 0 -272 115q-121 127 -121 338zM303 434q0 -106 48 -175t153 -69q84 0 160 76q59 61 93 166t34 201q0 109 -50.5 176.5 t-156.5 67.5q-82 0 -156 -74q-59 -59 -92 -165t-33 -204z" />
<glyph unicode="e" horiz-adv-x="1140" d="M43 444q0 70 12 138q39 223 193 368q150 141 362 142q131 0 232.5 -62.5t148.5 -163.5q53 -117 53 -245q0 -63 -12 -132q-2 -8 -5 -19t-3 -17h-737q0 -125 41 -185q61 -88 178 -88q158 0 209 123h246q-37 -121 -127 -205q-131 -125 -340 -125q-190 0 -320 129 q-61 61 -96 155.5t-35 186.5zM313 639h488q0 4 1 14.5t1 14.5q0 94 -55 155q-57 61 -158 62q-92 0 -168 -64q-74 -63 -109 -182z" />
<glyph unicode="f" horiz-adv-x="776" d="M45 854l37 211h182l23 133q23 133 112.5 219t257.5 86q115 0 242 -39l-37 -204q-100 29 -182 28q-119 0 -139 -110l-19 -113h283l-37 -211h-285l-149 -854h-258l151 854h-182z" />
<glyph unicode="g" horiz-adv-x="1083" d="M-68 -201q0 174 168 264q-76 55 -75 150q0 147 161 238q-80 92 -80 219q0 176 121 297q127 127 332 127q137 0 238 -60q90 125 233 125q53 0 70 -4l-35 -199q-4 0 -10 1t-11 1q-80 0 -122 -43q55 -86 55 -188q0 -156 -111 -272q-133 -143 -344 -144q-117 0 -200 41 q-76 -43 -76 -98q0 -53 104 -64l309 -32q109 -10 187 -89t78 -182q0 -147 -105 -247q-139 -135 -448 -136q-219 0 -336 95q-103 83 -103 200zM150 -154q0 -41 32 -77q61 -66 211 -66q164 0 242 68q43 39 43 90q0 43 -34 69.5t-79 32.5l-295 31q-120 -35 -120 -148zM350 676 q0 -74 51 -125q47 -45 125 -45q76 0 133 51q74 68 74 172q0 76 -49 125q-49 47 -127 47q-72 0 -135 -55q-72 -66 -72 -170z" />
<glyph unicode="h" horiz-adv-x="1210" d="M31 0l260 1479h258l-90 -510q129 123 301 123q150 0 237 -88q76 -74 76 -216q0 -51 -10 -108l-121 -680h-256l115 645q6 35 6 66q0 143 -143 143q-57 0 -112.5 -39t-92.5 -96q-59 -92 -90 -266l-80 -453h-258z" />
<glyph unicode="i" horiz-adv-x="569" d="M31 0l186 1065h262l-186 -1065h-262zM233 1214l48 265h276l-47 -265h-277z" />
<glyph unicode="j" horiz-adv-x="581" d="M-283 -385l37 207q74 -41 140 -41q104 0 124 113l205 1171h260l-215 -1241q-20 -125 -112.5 -196.5t-221.5 -71.5q-125 0 -217 59zM242 1214l47 265h276l-47 -265h-276z" />
<glyph unicode="k" horiz-adv-x="1171" d="M31 0l260 1479h258l-148 -838l461 424h346l-465 -424l312 -641h-287l-219 467l-211 -193l-49 -274h-258z" />
<glyph unicode="l" horiz-adv-x="604" d="M76 307l205 1172h258l-205 -1162q-3 -16 -3 -29q0 -73 83 -73q29 0 59 6l-37 -219q-57 -14 -131 -14q-119 0 -184 71q-53 59 -53 162q0 40 8 86z" />
<glyph unicode="m" horiz-adv-x="1814" d="M31 0l188 1065h209v-129q55 70 144.5 113t177.5 43q121 0 184 -48q82 -61 94 -143q63 86 156.5 138.5t193.5 52.5q135 0 217 -76q84 -76 84 -201q0 -63 -14 -145l-121 -670h-258l115 635q10 51 10 90q0 61 -36 95t-95 34q-88 0 -162 -88q-86 -106 -123 -313l-82 -453 h-251l112 635q10 47 10 90q0 57 -33.5 93t-99.5 36q-104 0 -190 -131q-59 -90 -92 -270l-82 -453h-256z" />
<glyph unicode="n" horiz-adv-x="1208" d="M31 0l188 1065h211v-129q135 156 330 156q150 0 237 -88q76 -74 76 -216q0 -51 -10 -108l-121 -680h-256l115 645q6 35 6 66q0 143 -143 143q-57 0 -111.5 -39t-91.5 -96q-61 -96 -92 -266l-80 -453h-258z" />
<glyph unicode="o" horiz-adv-x="1146" d="M43 434q0 334 197 522q143 135 348 136q190 0 311 -115q137 -129 137 -346q0 -334 -196 -522q-143 -135 -353 -136q-184 0 -305 115q-139 131 -139 346zM297 424q0 -88 39 -145q55 -82 164 -82q78 0 147 57q131 111 131 387q0 88 -39 145q-55 82 -164 82q-78 0 -147 -57 q-131 -111 -131 -387z" />
<glyph unicode="p" horiz-adv-x="1224" d="M-37 -408l260 1473v-6l2 6h207v-111q41 63 125 100.5t162 37.5q168 0 276 -115q119 -125 119 -338q0 -61 -14 -147q-55 -315 -269 -453q-102 -66 -227 -66q-100 0 -178 38t-117 100l-88 -519h-258zM365 432q0 -109 50 -176.5t156 -67.5q84 0 158 74q59 59 91 164.5 t32 204.5q0 84 -29 143q-49 100 -172 100q-88 0 -162 -73q-59 -61 -91.5 -166t-32.5 -203z" />
<glyph unicode="q" horiz-adv-x="1208" d="M43 426q0 182 70.5 347t210.5 253q102 66 227 66q100 0 179 -38t116 -102l53 113h219l-260 -1473h-258l82 474q-102 -92 -246 -93q-166 0 -274 115q-119 125 -119 338zM303 434q0 -104 52.5 -175t148.5 -71q88 0 162 74q82 84 112 252q12 78 13 119q0 113 -48 170 q-53 72 -159 71q-84 0 -158 -73q-59 -59 -91 -163t-32 -204z" />
<glyph unicode="r" horiz-adv-x="819" d="M31 0l186 1065h215v-137q90 141 297 141q49 0 115 -14l-43 -246q-61 20 -119 20q-119 0 -197.5 -77.5t-101.5 -210.5l-94 -541h-258z" />
<glyph unicode="s" horiz-adv-x="1048" d="M6 346v8h238q0 -61 43 -114q53 -68 192 -68q80 0 136.5 34t56.5 103q0 80 -86 99l-221 53q-127 31 -187 92q-74 78 -74 184q0 170 154 277q115 78 283 78q248 0 360 -162q63 -92 64 -185v-14h-240v2q0 61 -31 98q-53 66 -170 66q-82 0 -131 -43q-43 -37 -43 -90 q0 -72 105 -98l219 -54q88 -20 157 -86q82 -78 82 -194q0 -172 -137 -275q-115 -84 -317 -84q-268 0 -385 164q-68 98 -68 209z" />
<glyph unicode="t" horiz-adv-x="815" d="M45 854l37 211h190l47 266l271 80l-60 -346h269l-39 -211h-266l-91 -508q-2 -10 -2 -31q0 -96 119 -96q74 0 164 37l-39 -223q-111 -47 -219 -47q-133 0 -205 69q-80 78 -80 207q0 43 11 109l84 483h-191z" />
<glyph unicode="u" horiz-adv-x="1179" d="M66 248q-2 27 -3 53q0 43 7 84l120 680h256l-112 -645q-6 -35 -6 -66q0 -74 34 -108q37 -37 109 -37q109 0 195 133q53 82 86 270l79 453h259l-187 -1065h-211v129q-119 -156 -309 -156q-150 0 -244 101q-65 72 -73 174z" />
<glyph unicode="v" horiz-adv-x="1032" d="M45 1065h256l133 -750l385 750h279l-574 -1065h-272z" />
<glyph unicode="w" horiz-adv-x="1570" d="M102 1065h238l47 -698l338 688h211l111 -686l286 696h254l-448 -1065h-234l-121 727l-362 -727h-238z" />
<glyph unicode="x" horiz-adv-x="1060" d="M-119 0l465 543l-278 522h284l172 -350l297 350h295l-463 -524l273 -541h-281l-174 360l-293 -360h-297z" />
<glyph unicode="y" horiz-adv-x="1081" d="M-143 -375l37 207q84 -55 169 -55q84 0 130 80l83 145l-229 1063h268l142 -764l397 764h279l-715 -1294q-57 -104 -129 -156q-78 -59 -207 -59q-116 -1 -225 69z" />
<glyph unicode="z" horiz-adv-x="1030" d="M-41 0l41 225l657 629h-542l37 211h854l-41 -231l-650 -623h549l-37 -211h-868z" />
<glyph unicode="{" horiz-adv-x="772" d="M76 553l33 190q127 12 195.5 66.5t90.5 187.5l43 254q27 154 125.5 250t272.5 96h108l-31 -174h-69q-98 0 -147.5 -48t-65.5 -138l-56 -315q-16 -96 -87.5 -174t-180.5 -95l-2 -6q63 -14 113 -59q65 -62 65 -157q0 -28 -6 -58l-55 -316q-5 -31 -6 -56q0 -51 22 -83 q33 -47 131 -47h70l-31 -174h-98q-166 0 -239 103q-53 76 -53 171q0 35 7 72l47 254q8 44 9 80q0 70 -32 108q-48 58 -173 68z" />
<glyph unicode="|" horiz-adv-x="544" d="M172 -303v1900h201v-1900h-201z" />
<glyph unicode="}" horiz-adv-x="772" d="M-201 -303l31 174h70q98 0 147 48t66 138l55 316q16 96 88 174t180 94l2 6q-63 14 -112 60q-67 64 -67 158q0 27 5 57l58 315q5 31 5 56q0 51 -22 83q-33 47 -131 47h-70l31 174h98q166 0 239 -103q53 -76 53 -171q0 -35 -7 -72l-47 -254q-8 -44 -8 -80q0 -70 32 -108 q48 -57 173 -68l-33 -190q-127 -12 -195.5 -66.5t-91.5 -187.5l-43 -254q-27 -154 -125 -250t-272 -96h-109z" />
<glyph unicode="~" horiz-adv-x="1394" d="M102 621q76 70 124 106.5t123 69t151 32.5q82 0 206.5 -61t176.5 -61q117 0 243 110l129 -190q-113 -98 -206 -151.5t-201 -53.5q-86 0 -208 63.5t-171 63.5q-109 0 -240 -119z" />
<glyph unicode="&#xa1;" horiz-adv-x="694" d="M23 -418l81 455l156 563h154l-41 -563l-82 -455h-268zM229 762l50 272h270l-49 -272h-271z" />
<glyph unicode="&#xa2;" d="M115 649q0 141 49 275.5t143 224.5q131 127 322 139l28 164h127l-30 -172q139 -25 227 -125q96 -113 96 -278q0 -2 -1 -7.5t-1 -7.5h-252v17q0 72 -30 116q-29 43 -78 62l-119 -664q63 8 113.5 50t64.5 104h252q-33 -166 -165 -270.5t-304 -106.5l-31 -170h-127l33 184 q-168 45 -252 193q-65 112 -65 272zM371 633q0 -160 102 -219l115 645q-43 -12 -84 -47q-66 -55 -99.5 -164t-33.5 -215z" />
<glyph unicode="&#xa3;" d="M-16 0l41 225q156 0 182 152l47 266h-154l37 211h154l33 186q33 193 152.5 303.5t320.5 110.5q156 0 257 -88t101 -227q0 -37 -6 -74h-248q2 23 2 35q0 133 -137 133q-147 0 -182 -180l-35 -199h293l-37 -211h-293l-47 -268q-8 -47 -38 -89t-73 -53l-2 -4h338 q154 0 184 164h246q-35 -190 -151.5 -291.5t-309.5 -101.5h-675z" />
<glyph unicode="&#xa4;" d="M14 131l162 137q-74 129 -74 252t74 252l-162 129l181 178l137 -153q117 66 254 65q131 0 248 -65l141 153l178 -178l-160 -129q74 -129 74 -252q0 -127 -74 -252l160 -137l-176 -172l-143 156q-117 -68 -248 -68t-252 68l-141 -156zM330 520q0 -109 69.5 -184.5 t186.5 -75.5q119 0 185.5 71.5t66.5 188.5q0 111 -69 184.5t-183 73.5q-125 0 -190.5 -69.5t-65.5 -188.5z" />
<glyph unicode="&#xa5;" d="M-8 332l26 149h326l33 185h-326l27 149h217l-236 608h279l207 -555l393 555h287l-445 -608h234l-27 -149h-348l-33 -185h348l-26 -149h-348l-60 -332h-262l59 332h-325z" />
<glyph unicode="&#xa6;" horiz-adv-x="587" d="M168 -102v653h252v-653h-252zM168 901v653h252v-653h-252z" />
<glyph unicode="&#xa7;" horiz-adv-x="1120" d="M55 -98h228q-4 -25 -4 -37q0 -74 45 -114t118 -40q63 0 108.5 40t45.5 104q0 59 -49 118l-334 406q-86 104 -86 239q0 203 225 306q-49 76 -49 174q0 135 96 231q119 115 306 115q162 0 268 -96.5t106 -260.5q0 -6 -1 -16t-1 -16h-229q4 25 4 37q0 74 -44 111.5 t-118 37.5q-66 0 -109.5 -40t-43.5 -103q0 -59 47 -117l334 -406q90 -111 90 -239q0 -201 -230 -307q49 -86 49 -170q0 -133 -102 -236q-113 -113 -303 -112q-162 0 -264.5 99t-102.5 265v27zM352 623q0 -63 35 -105l277 -336q117 53 116 146q0 61 -37 108l-274 336 q-117 -55 -117 -149z" />
<glyph unicode="&#xa8;" horiz-adv-x="657" d="M84 1231l45 248h240l-45 -248h-240zM506 1231l45 248h240l-46 -248h-239z" />
<glyph unicode="&#xa9;" horiz-adv-x="1716" d="M100 725q0 326 216 540t542 214t542 -214t216 -540q0 -330 -214 -542t-544 -212t-544 212t-214 542zM293 725q0 -252 156.5 -415t408.5 -163q248 0 407.5 164t159.5 414t-158.5 414t-408.5 164t-407.5 -164t-157.5 -414zM483 721q0 172 104.5 288.5t280.5 116.5 q145 0 241.5 -85t113.5 -218h-209q-8 49 -47 83t-99 34q-86 0 -130 -64.5t-44 -154.5q0 -98 45 -159.5t129 -61.5q59 0 98.5 33.5t47.5 82.5h209q-16 -133 -112.5 -218t-242.5 -85q-176 0 -280.5 118t-104.5 290z" />
<glyph unicode="&#xaa;" horiz-adv-x="968" d="M150 860q0 111 74.5 175.5t195.5 74.5l237 18v50q0 63 -28.5 95t-106.5 32q-139 0 -145 -115h-189q8 131 99.5 197.5t234.5 66.5q240 0 301 -166q23 -55 23 -164v-303q0 -49 47 -49l25 4v-143q-51 -23 -97 -23q-59 0 -96 33t-41 82q-29 -51 -96.5 -86t-149.5 -35 q-137 0 -212.5 75t-75.5 181zM340 862q0 -45 33 -73.5t80 -28.5q94 0 149 49t55 137v37l-202 -16q-47 -4 -81 -31t-34 -74z" />
<glyph unicode="&#xab;" horiz-adv-x="1198" d="M70 651l438 473l129 -123l-305 -378l166 -416l-166 -84zM565 651l439 473l129 -123l-306 -378l166 -416l-166 -84z" />
<glyph unicode="&#xac;" horiz-adv-x="1366" d="M63 514v231h1084l2 -573h-250v342h-836z" />
<glyph unicode="&#xad;" horiz-adv-x="944" d="M84 516l41 229h702l-41 -229h-702z" />
<glyph unicode="&#xae;" horiz-adv-x="1716" d="M100 725q0 326 216 540t542 214t542 -214t216 -540q0 -330 -214 -542t-544 -212t-544 212t-214 542zM293 725q0 -252 156.5 -415t408.5 -163q248 0 406.5 164t158.5 414t-157.5 414t-407.5 164t-407.5 -164t-157.5 -414zM584 365v747h297q123 0 202.5 -66.5t79.5 -187.5 q0 -154 -116 -211l122 -282h-198l-101 245h-96v-245h-190zM772 780h109q90 0 90 84q0 39 -25.5 58.5t-64.5 19.5h-109v-162z" />
<glyph unicode="&#xaf;" horiz-adv-x="620" d="M-8 1251l33 205h614l-35 -205h-612z" />
<glyph unicode="&#xb0;" horiz-adv-x="909" d="M166 1137q0 145 95 243.5t255 98.5q158 0 258 -97.5t100 -244.5q0 -154 -104 -250t-254 -96q-147 0 -248.5 99.5t-101.5 246.5zM362 1137q0 -68 44.5 -114t110 -46t111.5 46t46 114q0 66 -46 110.5t-111.5 44.5t-110 -44.5t-44.5 -110.5z" />
<glyph unicode="&#xb1;" horiz-adv-x="1241" d="M100 0v217h1041v-217h-1041zM100 659v215h404v328h231v-328h406v-215h-406v-327h-231v327h-404z" />
<glyph unicode="&#xb2;" horiz-adv-x="909" d="M154 700l26 146l361 268q84 61 84 117q0 27 -22.5 49.5t-59.5 22.5q-51 0 -84 -30t-43 -73h-191q70 264 353 264q100 0 168.5 -59t68.5 -156q0 -121 -139 -225l-197 -150h291l-31 -174h-585z" />
<glyph unicode="&#xb3;" horiz-adv-x="905" d="M156 922v18h178v-4q0 -47 31.5 -70.5t78.5 -23.5q57 0 100.5 26.5t43.5 79.5q0 63 -109 64h-43l25 145h10q35 0 53.5 1t45 9.5t40 27.5t13.5 52q0 68 -93 68q-115 0 -145 -103h-174q31 121 124 186.5t222 65.5q104 0 178 -53q78 -59 78 -143q0 -63 -38 -112.5t-105 -65.5 q43 -16 70.5 -57.5t27.5 -86.5q0 -88 -63 -155q-94 -102 -277 -103q-123 0 -197.5 71t-74.5 163z" />
<glyph unicode="&#xb4;" horiz-adv-x="518" d="M104 1335l422 213l80 -202l-442 -156z" />
<glyph unicode="&#xb5;" horiz-adv-x="1220" d="M119 -414v1479h254v-657q0 -203 186 -203q78 0 131 53q78 72 78 240v567h256v-1065h-213l-20 143q-39 -78 -121 -124t-183 -46q-72 0 -114 23v-410h-254z" />
<glyph unicode="&#xb6;" horiz-adv-x="1374" d="M145 991q0 190 146.5 325.5t339.5 135.5h745l-35 -199h-139l-266 -1509h-203l266 1509h-200l-267 -1509h-202l157 893q-147 8 -244.5 107.5t-97.5 246.5z" />
<glyph unicode="&#xb7;" horiz-adv-x="641" d="M94 440l58 320h311l-57 -320h-312z" />
<glyph unicode="&#xb8;" horiz-adv-x="401" d="M-135 -391l223 307h199l-228 -408z" />
<glyph unicode="&#xb9;" horiz-adv-x="815" d="M207 1096l37 204l239 150h168l-131 -743h-186l92 526z" />
<glyph unicode="&#xba;" horiz-adv-x="968" d="M145 1026q0 190 91 301q45 53 119.5 89t162.5 36q178 0 281 -125q90 -111 90 -301q0 -186 -88 -295q-45 -55 -120 -92t-163 -37t-163.5 37t-121.5 92q-88 109 -88 295zM344 1026q0 -150 51 -205q47 -51 123 -51q74 0 121 51q53 57 53 205q0 150 -53 207q-47 51 -121 51 q-76 0 -123 -51q-51 -55 -51 -207z" />
<glyph unicode="&#xbb;" horiz-adv-x="1191" d="M12 242l307 372l-165 424l165 86l263 -534l-437 -467zM508 242l307 372l-166 424l166 86l262 -534l-436 -467z" />
<glyph unicode="&#xbc;" horiz-adv-x="1814" d="M166 74l1282 1405l133 -107l-1286 -1411zM217 1096l37 204l240 150h168l-132 -743h-186l92 526zM936 147l33 193l338 424h194l-356 -455h198l31 168h176l-28 -168h98l-29 -162h-98l-27 -145h-178l27 145h-379z" />
<glyph unicode="&#xbd;" horiz-adv-x="1859" d="M135 74l1282 1405l133 -107l-1286 -1411zM207 1098l37 205l239 149h168l-131 -743h-186l92 526zM950 0l27 145l360 269q84 61 84 116q0 27 -22.5 49.5t-59.5 22.5q-51 0 -83.5 -29.5t-43.5 -72.5h-190q70 264 352 264q100 0 169 -59.5t69 -155.5q0 -121 -139 -225 l-197 -150h291l-31 -174h-586z" />
<glyph unicode="&#xbe;" horiz-adv-x="1890" d="M162 922v18h178v-4q0 -47 33 -70.5t80 -23.5q57 0 99 26.5t42 79.5q0 63 -109 64h-43l27 145h10q35 0 53.5 1t45 9.5t40 27.5t13.5 52q0 35 -29 51.5t-65 16.5q-115 0 -146 -103h-174q31 121 124 186.5t222 65.5q104 0 178 -53q80 -61 80 -143q0 -63 -38 -112.5 t-105 -65.5q43 -16 70.5 -57.5t27.5 -86.5q0 -86 -65 -155q-94 -102 -277 -103q-123 0 -197.5 71t-74.5 163zM270 74l1282 1405l134 -107l-1287 -1411zM1012 147l32 193l338 424h195l-356 -455h198l31 168h176l-29 -168h99l-29 -162h-98l-27 -145h-178l27 145h-379z" />
<glyph unicode="&#xbf;" horiz-adv-x="1064" d="M-43 -84q0 37 6 74q29 172 223 303q8 6 35 22.5t34 22.5t28.5 20.5t29.5 21.5l25 22q16 15 23 26l19 28q11 17 17 32.5l13.5 36t11.5 42.5l10 49h254q-29 -168 -47 -210q-25 -61 -64.5 -110.5t-70.5 -73t-89 -60.5l-83 -53q-90 -61 -105 -142q-2 -12 -2 -30 q0 -74 57.5 -116t139.5 -42q96 0 160 59q59 59 63 144h266q-31 -195 -135 -297q-139 -137 -370 -138q-186 0 -317.5 99.5t-131.5 269.5zM430 743l51 287h287l-51 -287h-287z" />
<glyph unicode="&#xc0;" horiz-adv-x="1294" d="M-143 0l766 1452h303l254 -1452h-277l-45 279h-577l-144 -279h-280zM401 516h418l-100 612zM571 1778l115 186l377 -283l-82 -133z" />
<glyph unicode="&#xc1;" horiz-adv-x="1294" d="M-143 0l766 1452h303l254 -1452h-277l-45 279h-577l-144 -279h-280zM401 516h418l-100 612zM537 1741l421 213l80 -203l-442 -156z" />
<glyph unicode="&#xc2;" horiz-adv-x="1294" d="M-143 0l766 1452h303l254 -1452h-277l-45 279h-577l-144 -279h-280zM401 516h418l-100 612zM469 1712l287 211h151l215 -209l-123 -125l-182 178l-254 -186z" />
<glyph unicode="&#xc3;" horiz-adv-x="1294" d="M-143 0l766 1452h303l254 -1452h-277l-45 279h-577l-144 -279h-280zM401 516h418l-100 612zM451 1722q111 106 223 107q53 0 129 -35t108 -35q70 0 133 53l78 -124q-104 -104 -225 -105q-53 0 -129 34t-106 34q-72 0 -138 -54z" />
<glyph unicode="&#xc4;" horiz-adv-x="1294" d="M-143 0l766 1452h303l254 -1452h-277l-45 279h-577l-144 -279h-280zM401 516h418l-100 612zM467 1620l45 248h240l-45 -248h-240zM889 1620l45 248h240l-46 -248h-239z" />
<glyph unicode="&#xc5;" horiz-adv-x="1294" d="M-143 0l737 1397q-61 72 -62 166q0 104 73 175.5t177.5 71.5t177 -71.5t72.5 -175.5q0 -119 -90 -193l238 -1370h-277l-45 279h-577l-144 -279h-280zM403 516h414l-98 612zM676 1563q0 -45 30.5 -77t75.5 -32t77 32t32 77t-32 75.5t-77 30.5t-75.5 -30.5t-30.5 -75.5z " />
<glyph unicode="&#xc6;" horiz-adv-x="1947" d="M-152 0l920 1452h1217l-43 -240h-678l-62 -338h572l-43 -237h-572l-69 -397h696l-43 -240h-961l66 369h-471l-227 -369h-302zM526 612h365l104 594h-102z" />
<glyph unicode="&#xc7;" horiz-adv-x="1286" d="M72 549q0 201 66.5 413t189.5 336q180 180 428 181q223 0 370.5 -141.5t147.5 -362.5h-270q0 117 -72 190q-66 72 -182 72q-127 0 -226 -98q-88 -86 -137 -264.5t-49 -329.5q0 -166 84 -252q78 -80 201 -80q125 0 208 78q66 61 95 151h270q-35 -172 -176 -309 q-166 -160 -405.5 -160t-389.5 152q-153 154 -153 424zM276 -391l224 307h198l-247 -408z" />
<glyph unicode="&#xc8;" horiz-adv-x="1286" d="M41 0l258 1452h1024l-43 -240h-758l-61 -338h669l-43 -237h-669l-70 -397h770l-43 -240h-1034zM588 1778l114 186l377 -283l-82 -133z" />
<glyph unicode="&#xc9;" horiz-adv-x="1286" d="M41 0l258 1452h1024l-43 -240h-758l-61 -338h669l-43 -237h-669l-70 -397h770l-43 -240h-1034zM592 1741l422 213l80 -203l-443 -156z" />
<glyph unicode="&#xca;" horiz-adv-x="1286" d="M41 0l258 1452h1024l-43 -240h-758l-61 -338h669l-43 -237h-669l-70 -397h770l-43 -240h-1034zM496 1712l286 211h152l215 -209l-123 -125l-182 178l-254 -186z" />
<glyph unicode="&#xcb;" horiz-adv-x="1286" d="M41 0l258 1452h1024l-43 -240h-758l-61 -338h669l-43 -237h-669l-70 -397h770l-43 -240h-1034zM508 1620l45 248h240l-45 -248h-240zM930 1620l45 248h239l-45 -248h-239z" />
<glyph unicode="&#xcc;" horiz-adv-x="608" d="M41 0l256 1452h270l-256 -1452h-270zM231 1796l103 168l340 -256l-74 -119z" />
<glyph unicode="&#xcd;" horiz-adv-x="608" d="M41 0l256 1452h270l-256 -1452h-270zM209 1737l422 213l80 -203l-443 -156z" />
<glyph unicode="&#xce;" horiz-adv-x="608" d="M41 0l256 1452h270l-256 -1452h-270zM131 1712l287 211h151l215 -209l-122 -125l-183 178l-254 -186z" />
<glyph unicode="&#xcf;" horiz-adv-x="608" d="M41 0l256 1452h270l-256 -1452h-270zM129 1620l45 248h240l-45 -248h-240zM551 1620l45 248h240l-45 -248h-240z" />
<glyph unicode="&#xd0;" horiz-adv-x="1392" d="M31 668l30 172h127l109 612h487q131 0 247 -49t188 -146q102 -139 102 -333q0 -215 -71.5 -446.5t-223.5 -352.5q-162 -125 -420 -125h-565l117 668h-127zM348 238h287q158 0 248 94q80 84 129 261t49 312q0 123 -53 199q-78 111 -258 110h-230l-65 -374h268l-31 -172 h-268z" />
<glyph unicode="&#xd1;" horiz-adv-x="1501" d="M41 0l258 1452h281l446 -1030l172 1030h262l-258 -1452h-272l-455 1042l-172 -1042h-262zM524 1769q123 123 236 123q59 0 137 -43t111 -43q59 0 129 70l104 -131q-119 -123 -235 -123q-59 0 -139.5 42t-108.5 42q-70 0 -129 -68z" />
<glyph unicode="&#xd2;" horiz-adv-x="1374" d="M72 549q0 199 66.5 410.5t189.5 336.5q180 180 428 181q242 0 391 -152q156 -156 156 -424q0 -201 -66 -411.5t-188 -335.5q-180 -180 -435 -181q-240 0 -389 152q-153 154 -153 424zM338 545q0 -166 84 -252q80 -80 196 -80q133 0 230 96q88 86 136 265.5t48 330.5 q0 166 -84 252q-80 80 -196 80q-129 0 -228 -98q-88 -86 -137 -264t-49 -330zM588 1778l114 186l377 -283l-82 -133z" />
<glyph unicode="&#xd3;" horiz-adv-x="1374" d="M72 549q0 199 66.5 410.5t189.5 336.5q180 180 428 181q242 0 391 -152q156 -156 156 -424q0 -201 -66 -411.5t-188 -335.5q-180 -180 -435 -181q-240 0 -389 152q-153 154 -153 424zM338 545q0 -166 84 -252q80 -80 196 -80q133 0 230 96q88 86 136 265.5t48 330.5 q0 166 -84 252q-80 80 -196 80q-129 0 -228 -98q-88 -86 -137 -264t-49 -330zM594 1741l422 213l80 -203l-443 -156z" />
<glyph unicode="&#xd4;" horiz-adv-x="1374" d="M72 549q0 199 66.5 410.5t189.5 336.5q180 180 428 181q242 0 391 -152q156 -156 156 -424q0 -201 -66 -411.5t-188 -335.5q-180 -180 -435 -181q-240 0 -389 152q-153 154 -153 424zM338 545q0 -166 84 -252q80 -80 196 -80q133 0 230 96q88 86 136 265.5t48 330.5 q0 166 -84 252q-80 80 -196 80q-129 0 -228 -98q-88 -86 -137 -264t-49 -330zM492 1712l286 211h152l215 -209l-123 -125l-182 178l-254 -186z" />
<glyph unicode="&#xd5;" horiz-adv-x="1374" d="M72 549q0 199 66.5 410.5t189.5 336.5q180 180 428 181q242 0 391 -152q156 -156 156 -424q0 -201 -66 -411.5t-188 -335.5q-180 -180 -435 -181q-240 0 -389 152q-153 154 -153 424zM338 545q0 -166 84 -252q80 -80 196 -80q133 0 230 96q88 86 136 265.5t48 330.5 q0 166 -84 252q-80 80 -196 80q-129 0 -228 -98q-88 -86 -137 -264t-49 -330zM504 1737q111 106 225 106q53 0 128 -34.5t108 -34.5q72 0 135 53l78 -125q-104 -104 -226 -105q-55 0 -131 35t-106 35q-68 0 -135 -55z" />
<glyph unicode="&#xd6;" horiz-adv-x="1374" d="M72 549q0 199 66.5 410.5t189.5 336.5q180 180 428 181q242 0 391 -152q156 -156 156 -424q0 -201 -66 -411.5t-188 -335.5q-180 -180 -435 -181q-240 0 -389 152q-153 154 -153 424zM338 545q0 -166 84 -252q80 -80 196 -80q133 0 230 96q88 86 136 265.5t48 330.5 q0 166 -84 252q-80 80 -196 80q-129 0 -228 -98q-88 -86 -137 -264t-49 -330zM492 1620l45 248h239l-45 -248h-239zM913 1620l45 248h240l-45 -248h-240z" />
<glyph unicode="&#xd7;" horiz-adv-x="1406" d="M129 182l426 426l-426 426l147 148l426 -424l426 424l150 -148l-426 -426l426 -426l-150 -147l-426 426l-426 -426z" />
<glyph unicode="&#xd8;" horiz-adv-x="1370" d="M70 549q0 199 66.5 410.5t189.5 336.5q180 180 428 181q162 0 290 -74l93 137l125 -74l-105 -153q143 -154 143 -412q0 -201 -65.5 -411.5t-187.5 -335.5q-180 -180 -435 -181q-170 0 -301 82l-112 -166l-125 74l127 187q-131 153 -131 399zM336 545q0 -90 24 -156 l543 805q-68 43 -153 43q-129 0 -228 -98q-88 -86 -137 -264t-49 -330zM453 264q70 -51 163 -51q133 0 230 96q88 86 136 265.5t48 330.5q0 102 -31 172z" />
<glyph unicode="&#xd9;" horiz-adv-x="1421" d="M100 467q0 68 13 141l147 844h268l-151 -864q-10 -57 -10 -101q0 -135 74.5 -204.5t209.5 -69.5q133 0 215 86t109 236l164 917h266l-166 -944q-45 -248 -198.5 -391.5t-395.5 -143.5q-246 0 -395.5 126t-149.5 368zM578 1778l114 186l377 -283l-82 -133z" />
<glyph unicode="&#xda;" horiz-adv-x="1421" d="M100 467q0 68 13 141l147 844h268l-151 -864q-10 -57 -10 -101q0 -135 74.5 -204.5t209.5 -69.5q133 0 215 86t109 236l164 917h266l-166 -944q-45 -248 -198.5 -391.5t-395.5 -143.5q-246 0 -395.5 126t-149.5 368zM610 1741l422 213l80 -203l-442 -156z" />
<glyph unicode="&#xdb;" horiz-adv-x="1421" d="M100 467q0 68 13 141l147 844h268l-151 -864q-10 -57 -10 -101q0 -135 74.5 -204.5t209.5 -69.5q133 0 215 86t109 236l164 917h266l-166 -944q-45 -248 -198.5 -391.5t-395.5 -143.5q-246 0 -395.5 126t-149.5 368zM539 1712l286 211h152l215 -209l-123 -125l-182 178 l-254 -186z" />
<glyph unicode="&#xdc;" horiz-adv-x="1421" d="M100 467q0 68 13 141l147 844h268l-151 -864q-10 -57 -10 -101q0 -135 74.5 -204.5t209.5 -69.5q133 0 215 86t109 236l164 917h266l-166 -944q-45 -248 -198.5 -391.5t-395.5 -143.5q-246 0 -395.5 126t-149.5 368zM518 1620l45 248h240l-45 -248h-240zM940 1620l45 248 h240l-45 -248h-240z" />
<glyph unicode="&#xdd;" horiz-adv-x="1208" d="M80 1452h270l242 -641l471 641h295l-668 -895l-98 -557h-266l98 557zM467 1741l422 213l80 -203l-443 -156z" />
<glyph unicode="&#xde;" horiz-adv-x="1212" d="M39 0l258 1452h262l-45 -246h231q197 0 329 -113.5t132 -295.5q0 -250 -159.5 -386.5t-417.5 -136.5h-279l-49 -274h-262zM391 506h248q137 0 216 65.5t79 198.5q0 92 -59.5 148.5t-169.5 56.5h-232z" />
<glyph unicode="&#xdf;" horiz-adv-x="1243" d="M49 854l35 211h172l8 43q37 186 167 289.5t310 103.5q193 0 318 -123q98 -94 98 -241q0 -117 -69.5 -213.5t-182.5 -120.5q106 -33 175 -130.5t69 -213.5q0 -217 -145 -350q-143 -131 -342 -132q-117 0 -230 39l39 222q84 -25 158 -25q113 0 182 63q86 78 86 213 q0 96 -71.5 158t-172.5 62h-43l39 211h41q100 0 156 55q51 47 51 135q0 70 -43 117q-49 53 -129 53q-90 0 -144.5 -62.5t-72.5 -164.5l-186 -1053h-252l149 854h-170z" />
<glyph unicode="&#xe0;" horiz-adv-x="1208" d="M43 426q0 143 49 287.5t141 236.5q141 141 318 142q100 0 181 -41t114 -105l47 119h225l-188 -1065h-207v121q-98 -147 -287 -148q-166 0 -272 113q-121 127 -121 340zM303 428q0 -104 50 -171t151 -67q82 0 160 78q127 129 127 373q0 102 -50 164q-53 72 -157 72 q-80 0 -156 -76q-59 -59 -92 -166t-33 -207zM416 1389l114 186l377 -283l-82 -133z" />
<glyph unicode="&#xe1;" horiz-adv-x="1208" d="M43 426q0 143 49 287.5t141 236.5q141 141 318 142q100 0 181 -41t114 -105l47 119h225l-188 -1065h-207v121q-98 -147 -287 -148q-166 0 -272 113q-121 127 -121 340zM303 428q0 -104 50 -171t151 -67q82 0 160 78q127 129 127 373q0 102 -50 164q-53 72 -157 72 q-80 0 -156 -76q-59 -59 -92 -166t-33 -207zM401 1335l422 213l80 -202l-442 -156z" />
<glyph unicode="&#xe2;" horiz-adv-x="1208" d="M43 426q0 143 49 287.5t141 236.5q141 141 318 142q100 0 181 -41t114 -105l47 119h225l-188 -1065h-207v121q-49 -72 -128 -110t-159 -38q-166 0 -272 113q-121 127 -121 340zM303 428q0 -104 50 -171t151 -67q82 0 160 78q127 129 127 373q0 100 -49.5 168t-147.5 68 q-90 0 -166 -76q-59 -59 -92 -166t-33 -207zM373 1298l286 238h146l213 -252l-135 -110l-166 194l-240 -197z" />
<glyph unicode="&#xe3;" horiz-adv-x="1208" d="M43 426q0 143 49 287.5t141 236.5q141 141 318 142q100 0 181 -41t114 -105l47 119h225l-188 -1065h-207v121q-98 -147 -287 -148q-166 0 -272 113q-121 127 -121 340zM303 428q0 -104 50 -171t151 -67q82 0 160 78q127 129 127 373q0 102 -50 164q-53 72 -157 72 q-80 0 -156 -76q-59 -59 -92 -166t-33 -207zM350 1403q111 106 225 106q53 0 128 -34.5t108 -34.5q72 0 135 53l78 -125q-104 -104 -225 -104q-53 0 -131 34.5t-107 34.5q-68 0 -135 -55z" />
<glyph unicode="&#xe4;" horiz-adv-x="1208" d="M43 426q0 143 49 287.5t141 236.5q141 141 318 142q100 0 181 -41t114 -105l47 119h225l-188 -1065h-207v121q-98 -147 -287 -148q-166 0 -272 113q-121 127 -121 340zM303 428q0 -104 50 -171t151 -67q82 0 160 78q127 129 127 373q0 102 -50 164q-53 72 -157 72 q-80 0 -156 -76q-59 -59 -92 -166t-33 -207zM358 1231l45 248h240l-45 -248h-240zM780 1231l45 248h240l-45 -248h-240z" />
<glyph unicode="&#xe5;" horiz-adv-x="1208" d="M43 426q0 143 49 287.5t141 236.5q141 141 318 142q100 0 181 -41t114 -105l47 119h225l-188 -1065h-207v121q-98 -147 -287 -148q-166 0 -272 113q-121 127 -121 340zM303 428q0 -104 50 -171t151 -67q82 0 160 78q127 129 127 373q0 102 -50 164q-53 72 -157 72 q-80 0 -156 -76q-59 -59 -92 -166t-33 -207zM418 1454.5q0 104.5 72.5 176t177 71.5t177.5 -71.5t73 -176t-73 -177.5t-177.5 -73t-177 73t-72.5 177.5zM561 1454q0 -45 31 -76.5t76 -31.5t76.5 31.5t31.5 76.5t-31.5 76t-76.5 31t-76 -31t-31 -76z" />
<glyph unicode="&#xe6;" horiz-adv-x="1798" d="M-8 272q0 162 125 253t299 108q49 4 182 4h104l17 92q4 25 4 35q0 57 -37 92t-104 35q-176 0 -213 -146h-248q41 172 175 259.5t322 87.5q100 0 181.5 -42t103.5 -104q137 145 359 146q131 0 235.5 -62.5t151.5 -163.5q53 -117 53 -245q0 -63 -12 -132q-2 -8 -5.5 -19 t-3.5 -17h-739v-21q0 -102 41 -164q61 -90 180 -90q88 0 156 58q37 33 65 88h254q-47 -127 -143 -218q-141 -133 -344 -133q-119 0 -225.5 60.5t-151.5 169.5q-35 -68 -105.5 -123t-152.5 -82q-74 -25 -176 -25q-143 0 -245.5 81t-102.5 218zM248 289q0 -49 37 -77t92 -28 q121 0 196.5 74t96.5 191h-97q-100 0 -151 -5q-74 -4 -124 -43.5t-50 -111.5zM971 639h489q0 4 1 13.5t1 13.5q0 96 -57 159q-57 61 -158 62q-92 0 -168 -64q-77 -67 -108 -184z" />
<glyph unicode="&#xe7;" horiz-adv-x="1083" d="M43 453q0 141 49 275t144 224q147 139 350 140q211 0 323 -134q96 -113 97 -278q0 -2 -1 -7t-1 -7h-252v16q0 72 -31 117q-47 72 -143 71q-80 0 -145.5 -55t-99.5 -163.5t-34 -215.5q0 -102 49 -171.5t150 -69.5q74 0 132 44t72 111h252q-33 -168 -167 -272.5 t-308 -104.5q-119 0 -216 55.5t-154 151.5q-66 113 -66 273zM135 -391l223 307h199l-227 -408z" />
<glyph unicode="&#xe8;" horiz-adv-x="1140" d="M43 444q0 70 12 138q39 223 193 368q150 141 362 142q131 0 232.5 -62.5t148.5 -163.5q53 -117 53 -245q0 -63 -12 -132q-2 -8 -5 -19t-3 -17h-737q0 -125 41 -185q61 -88 178 -88q158 0 209 123h246q-37 -121 -127 -205q-131 -125 -340 -125q-190 0 -320 129 q-61 61 -96 155.5t-35 186.5zM313 639h488q0 4 1 14.5t1 14.5q0 94 -55 155q-57 61 -158 62q-92 0 -168 -64q-74 -63 -109 -182zM444 1382l115 187l377 -283l-82 -133z" />
<glyph unicode="&#xe9;" horiz-adv-x="1140" d="M43 444q0 70 12 138q39 223 193 368q150 141 362 142q131 0 232.5 -62.5t148.5 -163.5q53 -117 53 -245q0 -63 -12 -132q-2 -8 -5 -19t-3 -17h-737q0 -125 41 -185q61 -88 178 -88q158 0 209 123h246q-37 -121 -127 -205q-131 -125 -340 -125q-190 0 -320 129 q-61 61 -96 155.5t-35 186.5zM313 639h488q0 4 1 14.5t1 14.5q0 94 -55 155q-57 61 -158 62q-92 0 -168 -64q-74 -63 -109 -182zM436 1335l422 213l80 -202l-442 -156z" />
<glyph unicode="&#xea;" horiz-adv-x="1140" d="M43 444q0 70 12 138q39 223 193 368q150 141 362 142q131 0 232.5 -62.5t148.5 -163.5q53 -117 53 -245q0 -63 -12 -132q-2 -8 -5 -19t-3 -17h-737q0 -125 41 -185q61 -88 178 -88q158 0 209 123h246q-37 -121 -127 -205q-131 -125 -340 -125q-190 0 -320 129 q-61 61 -96 155.5t-35 186.5zM313 639h488q0 4 1 14.5t1 14.5q0 94 -55 155q-57 61 -158 62q-92 0 -168 -64q-74 -63 -109 -182zM330 1298l286 238h146l213 -252l-135 -110l-166 194l-240 -197z" />
<glyph unicode="&#xeb;" horiz-adv-x="1140" d="M43 444q0 70 12 138q39 223 193 368q150 141 362 142q131 0 232.5 -62.5t148.5 -163.5q53 -117 53 -245q0 -63 -12 -132q-2 -8 -5 -19t-3 -17h-737q0 -125 41 -185q61 -88 178 -88q158 0 209 123h246q-37 -121 -127 -205q-131 -125 -340 -125q-190 0 -320 129 q-61 61 -96 155.5t-35 186.5zM313 639h488q0 4 1 14.5t1 14.5q0 94 -55 155q-57 61 -158 62q-92 0 -168 -64q-74 -63 -109 -182zM338 1231l45 248h240l-45 -248h-240zM760 1231l45 248h239l-45 -248h-239z" />
<glyph unicode="&#xec;" horiz-adv-x="569" d="M31 0l186 1065h262l-186 -1065h-262zM156 1384l102 168l340 -254l-74 -120z" />
<glyph unicode="&#xed;" horiz-adv-x="569" d="M31 0l186 1065h262l-186 -1065h-262zM154 1339l381 191l71 -182l-399 -140z" />
<glyph unicode="&#xee;" horiz-adv-x="569" d="M31 0l186 1065h262l-186 -1065h-262zM55 1298l287 238h145l213 -252l-135 -110l-166 194l-239 -197z" />
<glyph unicode="&#xef;" horiz-adv-x="569" d="M31 0l186 1065h262l-186 -1065h-262zM82 1243l41 223h215l-39 -223h-217zM463 1243l39 223h217l-41 -223h-215z" />
<glyph unicode="&#xf0;" horiz-adv-x="1146" d="M43 434q0 334 197 522q143 135 348 136q33 0 49 -2l-45 104h-232l25 137h152l-58 148h246l59 -148h201l-24 -137h-119l139 -326q55 -127 55 -237q0 -334 -196 -522q-143 -135 -353 -136q-184 0 -305 115q-139 131 -139 346zM297 424q0 -88 39 -145q55 -82 164 -82 q78 0 147 57q131 111 131 387q0 88 -39 145q-55 82 -164 82q-78 0 -147 -57q-131 -111 -131 -387z" />
<glyph unicode="&#xf1;" horiz-adv-x="1208" d="M31 0l188 1065h211v-129q135 156 330 156q150 0 237 -88q76 -74 76 -216q0 -51 -10 -108l-121 -680h-256l115 645q6 35 6 66q0 143 -143 143q-57 0 -111.5 -39t-91.5 -96q-61 -96 -92 -266l-80 -453h-258zM348 1401q121 121 232 121q59 0 135 -42t108 -42q61 0 125 67 l103 -129q-121 -121 -230 -121q-59 0 -137 41t-106 41q-66 0 -127 -65z" />
<glyph unicode="&#xf2;" horiz-adv-x="1146" d="M43 434q0 334 197 522q143 135 348 136q190 0 311 -115q137 -129 137 -346q0 -334 -196 -522q-143 -135 -353 -136q-184 0 -305 115q-139 131 -139 346zM297 424q0 -88 39 -145q55 -82 164 -82q78 0 147 57q131 111 131 387q0 88 -39 145q-55 82 -164 82q-78 0 -147 -57 q-131 -111 -131 -387zM426 1389l115 186l377 -283l-82 -133z" />
<glyph unicode="&#xf3;" horiz-adv-x="1146" d="M43 434q0 334 197 522q143 135 348 136q190 0 311 -115q137 -129 137 -346q0 -334 -196 -522q-143 -135 -353 -136q-184 0 -305 115q-139 131 -139 346zM297 424q0 -88 39 -145q55 -82 164 -82q78 0 147 57q131 111 131 387q0 88 -39 145q-55 82 -164 82q-78 0 -147 -57 q-131 -111 -131 -387zM455 1335l419 213l80 -202l-442 -156z" />
<glyph unicode="&#xf4;" horiz-adv-x="1146" d="M43 434q0 334 197 522q143 135 348 136q190 0 311 -115q137 -129 137 -346q0 -334 -196 -522q-143 -135 -353 -136q-184 0 -305 115q-139 131 -139 346zM297 424q0 -88 39 -145q55 -82 164 -82q78 0 147 57q131 111 131 387q0 88 -39 145q-55 82 -164 82q-78 0 -147 -57 q-131 -111 -131 -387zM326 1298l286 238h146l213 -252l-135 -110l-166 194l-240 -197z" />
<glyph unicode="&#xf5;" horiz-adv-x="1146" d="M43 434q0 334 197 522q143 135 348 136q190 0 311 -115q137 -129 137 -346q0 -334 -196 -522q-143 -135 -353 -136q-184 0 -305 115q-139 131 -139 346zM297 424q0 -88 39 -145q55 -82 164 -82q78 0 147 57q131 111 131 387q0 88 -39 145q-55 82 -164 82q-78 0 -147 -57 q-131 -111 -131 -387zM313 1391q113 109 224 108q53 0 128.5 -36t108.5 -36q66 0 133 56l78 -125q-104 -104 -225 -105q-55 0 -131 34t-105 34q-72 0 -137 -53z" />
<glyph unicode="&#xf6;" horiz-adv-x="1146" d="M43 434q0 334 197 522q143 135 348 136q190 0 311 -115q137 -129 137 -346q0 -334 -196 -522q-143 -135 -353 -136q-184 0 -305 115q-139 131 -139 346zM297 424q0 -88 39 -145q55 -82 164 -82q78 0 147 57q131 111 131 387q0 88 -39 145q-55 82 -164 82q-78 0 -147 -57 q-131 -111 -131 -387zM319 1231l46 248h239l-45 -248h-240zM741 1231l45 248h240l-45 -248h-240z" />
<glyph unicode="&#xf7;" horiz-adv-x="1323" d="M121 498v233h1081v-233h-1081zM524 61v285h281v-285h-281zM524 893v285h281v-285h-281z" />
<glyph unicode="&#xf8;" horiz-adv-x="1146" d="M43 434q0 334 197 522q143 135 348 136q117 0 213 -48l84 127l119 -67l-93 -139q125 -125 125 -334q0 -334 -196 -522q-143 -135 -353 -136q-113 0 -204 45l-93 -139l-118 68l100 151q-129 131 -129 336zM295 424q0 -68 18 -113l359 539q-45 23 -97 22q-78 0 -149 -59 q-131 -110 -131 -389zM412 211q39 -18 88 -18q78 0 149 59q131 111 131 389q0 59 -16 102z" />
<glyph unicode="&#xf9;" horiz-adv-x="1179" d="M66 248q-2 27 -3 53q0 43 7 84l120 680h256l-112 -645q-6 -35 -6 -66q0 -74 34 -108q37 -37 109 -37q109 0 195 133q53 82 86 270l79 453h259l-187 -1065h-211v129q-119 -156 -309 -156q-150 0 -244 101q-65 72 -73 174zM406 1389l114 186l377 -283l-82 -133z" />
<glyph unicode="&#xfa;" horiz-adv-x="1179" d="M66 248q-2 27 -3 53q0 43 7 84l120 680h256l-112 -645q-6 -35 -6 -66q0 -74 34 -108q37 -37 109 -37q109 0 195 133q53 82 86 270l79 453h259l-187 -1065h-211v129q-119 -156 -309 -156q-150 0 -244 101q-65 72 -73 174zM422 1335l422 213l80 -202l-443 -156z" />
<glyph unicode="&#xfb;" horiz-adv-x="1179" d="M66 248q-2 27 -3 53q0 43 7 84l120 680h256l-112 -645q-6 -35 -6 -66q0 -74 34 -108q37 -37 109 -37q109 0 195 133q53 82 86 270l79 453h259l-187 -1065h-211v129q-119 -156 -309 -156q-150 0 -244 101q-65 72 -73 174zM352 1298l287 238h145l213 -252l-135 -110 l-166 194l-239 -197z" />
<glyph unicode="&#xfc;" horiz-adv-x="1179" d="M66 248q-2 27 -3 53q0 43 7 84l120 680h256l-112 -645q-6 -35 -6 -66q0 -74 34 -108q37 -37 109 -37q109 0 195 133q53 82 86 270l79 453h259l-187 -1065h-211v129q-119 -156 -309 -156q-150 0 -244 101q-65 72 -73 174zM328 1231l45 248h239l-45 -248h-239zM750 1231 l45 248h239l-45 -248h-239z" />
<glyph unicode="&#xfd;" horiz-adv-x="1081" d="M-143 -375l37 207q84 -55 169 -55q84 0 130 80l83 145l-229 1063h268l142 -764l397 764h279l-715 -1294q-57 -104 -129 -156q-78 -59 -207 -59q-116 -1 -225 69zM362 1329l422 213l80 -203l-442 -155z" />
<glyph unicode="&#xfe;" horiz-adv-x="1218" d="M-47 -408l334 1887h258l-78 -478q100 92 246 93q168 0 276 -115q119 -125 119 -338q0 -180 -71.5 -346t-211.5 -254q-102 -66 -227 -66q-197 0 -295 140l-94 -523h-256zM358 434q0 -113 48 -170q53 -72 159 -71q84 0 158 73q59 59 91 162.5t32 204.5q0 104 -52.5 175 t-148.5 71q-88 0 -162 -74q-59 -61 -92 -167t-33 -204z" />
<glyph unicode="&#xff;" horiz-adv-x="1081" d="M-143 -375l37 207q84 -55 169 -55q84 0 130 80l83 145l-229 1063h268l142 -764l397 764h279l-715 -1294q-57 -104 -129 -156q-78 -59 -207 -59q-116 -1 -225 69zM291 1231l45 248h239l-45 -248h-239zM713 1231l45 248h239l-45 -248h-239z" />
<glyph unicode="&#x152;" horiz-adv-x="2095" d="M72 539q0 233 75.5 458.5t231.5 345.5q174 135 381 136q123 0 226.5 -49.5t139.5 -124.5l27 147h971l-43 -240h-713l-61 -338h616l-43 -237h-616l-70 -397h725l-43 -240h-981l16 92q-47 -55 -136 -87t-173 -32q-250 0 -390 157t-140 409zM338 551q0 -141 74.5 -239.5 t214.5 -98.5q119 0 215 78t149 269.5t53 350.5q0 131 -55 209q-84 119 -235 119q-51 0 -91 -12.5t-64 -27.5t-58 -44q-96 -78 -149.5 -261t-53.5 -343z" />
<glyph unicode="&#x153;" horiz-adv-x="1884" d="M47 434q0 150 51.5 290t149.5 234q141 133 350 134q102 0 199.5 -49.5t142.5 -135.5q152 184 395 185q131 0 235.5 -62.5t151.5 -163.5q53 -117 54 -245q0 -63 -13 -132q-2 -8 -5 -19t-3 -17h-739v-21q0 -102 41 -164q61 -90 180 -90q88 0 156 58q37 33 65 88h254 q-47 -127 -143 -218q-141 -133 -344 -133q-109 0 -206 49.5t-153 137.5q-154 -186 -368 -187q-190 0 -322 127q-129 127 -129 334zM307 424q0 -88 39 -145q55 -82 164 -82q80 0 145.5 55t98 167.5t32.5 221.5q0 90 -36 145q-55 82 -164 82q-80 0 -146 -55q-63 -53 -98 -169 t-35 -220zM1044 639h490v27q0 98 -55 159q-57 61 -158 62q-92 0 -168 -64q-78 -67 -109 -184z" />
<glyph unicode="&#x178;" horiz-adv-x="1208" d="M80 1452h270l242 -641l471 641h295l-668 -895l-98 -557h-266l98 557zM387 1595l45 248h240l-45 -248h-240zM809 1595l45 248h240l-45 -248h-240z" />
<glyph unicode="&#x2c6;" horiz-adv-x="743" d="M147 1298l287 238h146l213 -252l-136 -110l-165 194l-240 -197z" />
<glyph unicode="&#x2dc;" horiz-adv-x="782" d="M147 1401q113 109 224 108q53 0 128.5 -35.5t108.5 -35.5q66 0 133 55l78 -125q-104 -104 -225 -104q-53 0 -129 33.5t-107 33.5q-72 0 -137 -53z" />
<glyph unicode="&#x2013;" horiz-adv-x="1345" d="M84 516l41 229h1104l-41 -229h-1104z" />
<glyph unicode="&#x2014;" horiz-adv-x="2349" d="M84 516l39 227h2107l-39 -227h-2107z" />
<glyph unicode="&#x2018;" horiz-adv-x="542" d="M143 848l47 276q23 133 84.5 216t192.5 135l45 -119q-84 -37 -119 -83t-49 -126h145l-51 -299h-295z" />
<glyph unicode="&#x2019;" horiz-adv-x="501" d="M156 942q84 37 119.5 83t50.5 126h-148l53 301h297l-49 -278q-23 -131 -85 -215.5t-193 -135.5z" />
<glyph unicode="&#x201a;" horiz-adv-x="583" d="M14 -213q84 37 121 84t51 129h-149l53 307h301l-49 -284q-23 -135 -86 -220.5t-197 -136.5z" />
<glyph unicode="&#x201c;" horiz-adv-x="985" d="M147 846l50 276q23 133 83 216t191 135l45 -119q-84 -37 -120 -83t-50 -126h148l-54 -299h-293zM580 846l49 276q23 131 85 215t193 136l45 -119q-84 -37 -119.5 -83t-50.5 -126h146l-54 -299h-294z" />
<glyph unicode="&#x201d;" horiz-adv-x="944" d="M160 944q84 37 119.5 83t50.5 126h-146l54 299h294l-49 -276q-23 -131 -85 -215t-193 -136zM596 944q84 37 120 83t50 126h-148l54 299h293l-50 -276q-23 -133 -83 -216t-191 -135z" />
<glyph unicode="&#x201e;" horiz-adv-x="1028" d="M10 -213q84 37 121 84t51 129h-149l53 307h301l-49 -284q-23 -135 -86.5 -220.5t-196.5 -136.5zM455 -213q84 37 120.5 84t51.5 129h-150l53 307h301l-49 -284q-23 -135 -86 -220.5t-196 -136.5z" />
<glyph unicode="&#x2022;" horiz-adv-x="880" d="M125 598q0 119 85 204t203.5 85t203.5 -85t85 -204t-85 -204t-203.5 -85t-203.5 85t-85 204z" />
<glyph unicode="&#x2026;" horiz-adv-x="2041" d="M57 0l54 299h297l-54 -299h-297zM743 0l54 299h297l-54 -299h-297zM1430 0l53 299h297l-54 -299h-296z" />
<glyph unicode="&#x2039;" horiz-adv-x="686" d="M70 651l438 473l129 -123l-305 -378l166 -416l-166 -84z" />
<glyph unicode="&#x203a;" horiz-adv-x="696" d="M12 242l307 372l-165 424l165 86l263 -534l-437 -467z" />
<glyph unicode="&#x20ac;" d="M-45 487l27 150h133q2 43 14 129l2 16h-125l27 150h135q72 248 252 387q172 133 389 133q260 0 442 -176l-131 -199q-141 141 -329 142q-133 0 -228 -80q-84 -72 -131 -207h596l-98 -150h-535q-4 -16 -8 -41q-8 -47 -12 -104h489l-98 -150h-387q14 -100 53 -157 q88 -125 258 -125q176 0 293 90l74 -211q-166 -113 -373 -113q-295 0 -453 209q-94 129 -114 307h-162z" />
<glyph unicode="&#x2122;" horiz-adv-x="1751" d="M117 1278l30 174h648l-31 -174h-225l-105 -606h-201l109 606h-225zM762 672l139 780h270l70 -494l242 494h276l-137 -780h-197l97 526l-252 -506h-150l-76 514l-88 -534h-194z" />
<glyph unicode="&#xe000;" horiz-adv-x="1065" d="M0 1065h1065v-1065h-1065v1065z" />
<glyph unicode="&#xfb01;" horiz-adv-x="1343" d="M45 854l37 211h182l23 133q23 133 112.5 219t257.5 86q115 0 242 -39l-37 -204q-100 29 -182 28q-119 0 -139 -110l-19 -113h283l-37 -211h-285l-149 -854h-258l151 854h-182zM805 0l186 1065h262l-186 -1065h-262zM1008 1214l47 265h276l-47 -265h-276z" />
<glyph unicode="&#xfb02;" horiz-adv-x="1380" d="M45 854l37 211h182l23 133q23 133 112.5 219t257.5 86q115 0 242 -39l-37 -204q-100 29 -182 28q-119 0 -139 -110l-19 -113h283l-37 -211h-285l-149 -854h-258l151 854h-182zM852 307l205 1172h258l-205 -1162q-3 -16 -3 -29q0 -73 83 -73q29 0 59 6l-37 -219 q-57 -14 -131 -14q-119 0 -184 71q-53 59 -53 162q0 40 8 86z" />
<glyph unicode="&#xfb03;" horiz-adv-x="2121" d="M1583 0l186 1065h262l-186 -1065h-262zM1785 1214l48 265h276l-47 -265h-277zM821 854l37 211h182l23 133q23 133 112.5 219t257.5 86q115 0 242 -39l-37 -204q-100 29 -182 28q-119 0 -139 -110l-19 -113h283l-37 -211h-285l-149 -854h-258l151 854h-182zM45 854l37 211 h182l23 133q23 133 112.5 219t257.5 86q115 0 242 -39l-37 -204q-100 29 -182 28q-119 0 -139 -110l-19 -113h283l-37 -211h-285l-149 -854h-258l151 854h-182z" />
<glyph unicode="&#xfb04;" horiz-adv-x="2156" d="M1628 307l205 1172h258l-205 -1162q-3 -16 -3 -29q0 -73 83 -73q29 0 59 6l-37 -219q-57 -14 -131 -14q-119 0 -184 71q-53 59 -53 162q0 40 8 86zM821 854l37 211h182l23 133q23 133 112.5 219t257.5 86q115 0 242 -39l-37 -204q-100 29 -182 28q-119 0 -139 -110 l-19 -113h283l-37 -211h-285l-149 -854h-258l151 854h-182zM45 854l37 211h182l23 133q23 133 112.5 219t257.5 86q115 0 242 -39l-37 -204q-100 29 -182 28q-119 0 -139 -110l-19 -113h283l-37 -211h-285l-149 -854h-258l151 854h-182z" />
</font>
</defs>
</svg>
